# xmcd CD database file
#
# Track frame offsets:
#	150
#	15643
#	34185
#	49274
#
# Disc length: 905 seconds
#
# Revision: 0
# Processed by: cddbd v1.5.1PL0 Copyright (c) Steve Scherf et al.
# Submitted via: CDex 1.51
#
DISCID=2b038704
DTITLE=Sparcoo Records - BOOT! Service Pack
DYEAR=2005
DGENRE=Pop
TTITLE0=BOOT!
TTITLE1=Pearl
TTITLE2=月とオブラート
TTITLE3=初恋デッサン
EXTD=YEAR: 2005
EXTT0=
EXTT1=
EXTT2=
EXTT3=
PLAYORDER=
